<svg xmlns="http://www.w3.org/2000/svg" version="1.1" xmlns:xlink="http://www.w3.org/1999/xlink" width="512px" height="512px"><svg width="512px" height="512px" version="1.1" xmlns="http://www.w3.org/2000/svg" xmlns:xlink="http://www.w3.org/1999/xlink" xml:space="preserve" xmlns:serif="http://www.serif.com/" style="fill-rule:evenodd;clip-rule:evenodd;stroke-linejoin:round;stroke-miterlimit:2;">
    <g transform="matrix(2.85148,0,0,2.85148,-1355.55,-2078.83)">
        <path d="M488.341,802.647C488.341,790.723 490.213,780.174 493.959,771.001C497.704,761.829 502.826,754.146 509.323,747.955C515.821,741.763 523.465,737.062 532.255,733.852C541.046,730.641 550.562,729.036 560.805,729.036C571.048,729.036 580.565,730.641 589.355,733.852C598.146,737.062 605.828,741.763 612.402,747.955C618.975,754.146 624.135,761.829 627.881,771.001C631.626,780.174 633.499,790.723 633.499,802.647C633.499,817.629 630.747,830.356 625.243,840.829C619.74,851.301 612.249,859.518 602.77,865.48C605.063,866.55 607.777,867.697 610.911,868.92C614.045,870.143 617.332,871.366 620.772,872.589C624.211,873.812 627.766,874.997 631.435,876.143C635.104,877.29 638.544,878.322 641.754,879.239C641.907,880.157 641.984,880.959 641.984,881.647L641.984,883.596C641.984,892.31 639.729,898.655 635.219,902.63C630.709,906.605 624.785,908.592 617.447,908.592C610.414,908.592 603.152,906.643 595.661,902.744C588.17,898.846 580.526,893.228 572.73,885.889L562.64,876.487L560.805,876.487C550.409,876.487 540.778,874.844 531.911,871.557C523.044,868.27 515.4,863.493 508.979,857.225C502.558,850.957 497.513,843.236 493.844,834.064C490.175,824.891 488.341,814.419 488.341,802.647ZM529.618,802.647C529.618,816.559 532.446,826.955 538.103,833.834C543.759,840.714 551.327,844.154 560.805,844.154C570.436,844.154 578.08,840.714 583.737,833.834C589.393,826.955 592.222,816.559 592.222,802.647C592.222,788.888 589.432,778.569 583.852,771.689C578.271,764.81 570.666,761.37 561.034,761.37C551.556,761.37 543.95,764.771 538.217,771.575C532.484,778.378 529.618,788.735 529.618,802.647Z" style="fill:rgb(132,45,81);fill-rule:nonzero;"></path>
    </g>
</svg><style>@media (prefers-color-scheme: light) { :root { filter: none; } }
@media (prefers-color-scheme: dark) { :root { filter: none; } }
</style></svg>